<?xml version="1.0" encoding="UTF-8" standalone="no"?>
<!-- Created with Inkscape (http://www.inkscape.org/) -->

<svg
   width="1080"
   height="1080"
   viewBox="0 0 285.74999 285.75"
   version="1.1"
   id="svg1"
   xml:space="preserve"
   xmlns:inkscape="http://www.inkscape.org/namespaces/inkscape"
   xmlns:sodipodi="http://sodipodi.sourceforge.net/DTD/sodipodi-0.dtd"
   xmlns="http://www.w3.org/2000/svg"
   xmlns:svg="http://www.w3.org/2000/svg"><sodipodi:namedview
     id="namedview1"
     pagecolor="#ffffff"
     bordercolor="#000000"
     borderopacity="0.25"
     inkscape:showpageshadow="2"
     inkscape:pageopacity="0.0"
     inkscape:pagecheckerboard="0"
     inkscape:deskcolor="#d1d1d1"
     inkscape:document-units="mm"
     inkscape:zoom="0.71713664"
     inkscape:cx="396.71658"
     inkscape:cy="561.25984"
     inkscape:window-width="1920"
     inkscape:window-height="1011"
     inkscape:window-x="1080"
     inkscape:window-y="648"
     inkscape:window-maximized="1"
     inkscape:current-layer="layer1" /><defs
     id="defs1" /><g
     inkscape:label="Layer 1"
     inkscape:groupmode="layer"
     id="layer1"><g
       id="g1"><path
         style="fill:#000000;stroke-width:1.64732"
         d="m 65.235515,261.84385 c -0.767102,-0.0932 -3.337903,-0.60175 -5.71289,-1.13018 -5.189191,-1.1546 -6.55126,-2.13336 -6.933375,-4.98224 l -0.268662,-2.00303 10.525423,-10.56184 10.525424,-10.56183 v -4.64366 -4.64364 l -5.237511,-5.22265 -5.237507,-5.22266 h -4.870486 -4.870486 l -10.282121,10.27452 c -9.503869,9.49682 -10.40601,10.2745 -11.91891,10.2745 -3.200957,0 -4.255176,-1.22381 -5.686901,-6.60172 -1.172744,-4.40511 -1.471238,-14.99926 -0.556949,-19.76722 2.70709,-14.1173 11.568316,-25.96819 24.454227,-32.70476 6.727986,-3.51729 11.457147,-4.75303 19.325091,-5.04968 5.010192,-0.18889 7.361985,-0.0687 10.214695,0.52209 l 3.705937,0.76748 17.07127,-17.06657 L 116.55304,136.45418 88.124895,107.83238 59.696773,79.210599 53.16795,78.968097 C 49.577097,78.834664 46.267215,78.548608 45.812656,78.332282 45.358097,78.11594 40.28477,70.093935 34.538596,60.505562 25.561895,45.526567 24.091008,42.810165 24.091008,41.211186 c 0,-1.775575 0.325382,-2.191089 7.089873,-9.053819 7.141525,-7.245239 8.718909,-8.503477 10.660339,-8.503477 0.582799,0 8.991851,4.754149 18.686779,10.564776 15.186218,9.10182 17.71439,10.773589 18.257197,12.072719 0.418666,1.001983 0.630066,3.502315 0.630066,7.451891 v 5.94395 l 28.477598,28.474766 28.47759,28.474778 17.16436,-17.169071 17.16436,-17.169055 -0.66194,-3.403671 c -0.37898,-1.948613 -0.64876,-5.987358 -0.63109,-9.447478 0.0257,-5.038322 0.23728,-6.800542 1.27162,-10.592267 2.35199,-8.622088 5.79692,-14.629515 12.14355,-21.176504 11.45862,-11.820371 27.62136,-16.42526 44.11281,-12.568078 4.89629,1.14519 6.31959,2.184902 6.68114,4.880535 0.25087,1.870374 0.16259,2.024103 -3.47289,6.043099 -2.05167,2.268146 -6.67846,7.050031 -10.28172,10.626411 l -6.55141,6.502507 0.005,4.655325 0.005,4.655325 5.18319,5.230241 5.1832,5.230229 h 4.68697 4.68698 l 10.28213,-10.274506 c 9.50387,-9.49683 10.406,-10.274504 11.9189,-10.274504 3.22352,0 4.31734,1.28558 5.64221,6.63142 0.558,2.251491 0.75629,5.254828 0.75629,11.454509 0,7.580622 -0.11367,8.794843 -1.16074,12.408317 -3.78777,13.070858 -12.68212,23.524176 -24.94324,29.315206 -6.38993,3.01802 -10.63045,4.03028 -18.07149,4.31386 -4.78343,0.18231 -7.16861,0.0568 -9.98179,-0.5249 l -3.69646,-0.76443 -13.8263,13.82053 -13.8263,13.82055 3.35206,3.09745 3.35208,3.09744 2.2586,-2.02997 c 1.80345,-1.62092 2.59978,-2.0279 3.95172,-2.01963 2.87641,0.0176 5.03611,2.54909 4.52032,5.29856 -0.15551,0.8293 -1.00027,2.18998 -1.90221,3.06416 -0.89228,0.86484 -1.62234,1.72853 -1.62234,1.91933 0,0.19079 14.80156,13.94108 32.89236,30.55621 20.12635,18.48463 33.47213,31.08062 34.38616,32.45427 0.82158,1.23471 2.06815,3.5002 2.77014,5.0344 1.17744,2.57329 1.29008,3.33807 1.45341,9.86847 0.15749,6.29455 0.0662,7.41202 -0.82296,10.08411 -4.73602,14.23173 -21.15565,22.23776 -35.42804,17.27431 -6.6706,-2.3198 -7.28963,-2.91451 -39.73054,-38.16949 l -30.13345,-32.74737 -1.63862,1.59152 c -2.78965,2.70948 -5.11864,3.04116 -7.32662,1.04343 -1.29058,-1.16767 -1.78949,-3.58504 -1.04076,-5.04276 0.30935,-0.60224 1.27262,-1.83878 2.1406,-2.74787 l 1.57817,-1.65287 -3.14409,-3.37446 -3.14409,-3.37447 -13.67132,13.70381 -13.6713,13.70382 0.65383,3.64364 c 0.35961,2.00399 0.6375,6.25873 0.6175,9.45499 -0.0417,6.65866 -1.30334,12.30334 -4.10581,18.36891 -4.76865,10.32116 -14.402035,19.53169 -24.836475,23.74635 -6.698983,2.70584 -15.794419,3.96694 -22.626337,3.13719 z m 11.869005,-9.64653 c 13.894764,-2.4792 25.40983,-13.10741 29.3596,-27.09844 1.45051,-5.13804 1.44971,-13.6846 -0.002,-19.08212 -0.56699,-2.10839 -0.90884,-4.31971 -0.75967,-4.91403 0.15089,-0.60149 21.23411,-22.03972 47.55175,-48.35267 42.2511,-42.24354 47.43279,-47.27207 48.71177,-47.27207 0.78717,0 3.06722,0.41842 5.06677,0.92983 7.07404,1.80923 16.81944,0.97513 23.58977,-2.01904 10.78288,-4.768704 19.13511,-14.960561 21.53362,-26.276514 0.35974,-1.697232 0.6577,-5.065535 0.66214,-7.485111 l 0.008,-4.399277 -8.04982,8.002319 -8.0498,8.002307 h -8.01267 c -6.01873,0 -8.32505,-0.164073 -9.26807,-0.659619 -1.71878,-0.903076 -14.38382,-14.302239 -14.966,-15.833503 -0.61128,-1.607798 -0.60898,-14.227548 0.003,-15.836883 0.25962,-0.682876 3.82998,-4.723776 7.93411,-8.979778 l 7.46207,-7.738184 -3.1688,-0.150564 c -4.21142,-0.200095 -9.30007,0.646784 -13.91616,2.316 -10.71716,3.875404 -19.76202,13.798576 -23.02807,25.26423 -1.47997,5.195536 -1.48465,13.682035 -0.01,19.175477 0.56576,2.108386 0.9066,4.319712 0.75744,4.914032 -0.15089,0.601501 -21.26163,22.067258 -47.61544,48.416348 l -47.344228,47.33575 -2.255491,-0.28275 c -1.240529,-0.15551 -3.615352,-0.59824 -5.277413,-0.98381 -1.668272,-0.38704 -5.208555,-0.7022 -7.903455,-0.70362 -10.541874,-0.005 -19.525811,3.9691 -26.956605,11.92592 -6.352212,6.80188 -9.267051,13.87216 -9.643084,23.3904 l -0.229588,5.81137 8.100514,-8.0197 8.100514,-8.01969 h 8.511569 8.511571 l 7.438717,7.32233 c 4.091312,4.02728 7.726777,7.99554 8.078842,8.81836 0.898266,2.09939 0.8911,14.46022 -0.0099,16.53416 -0.357336,0.8228 -3.913895,4.73624 -7.903468,8.69649 -3.989557,3.96026 -7.253745,7.35992 -7.253745,7.55478 0,0.56783 6.427499,0.37784 10.241814,-0.30273 z M 97.776959,188.5044 c -1.465866,-1.46586 -1.870069,-3.20744 -1.148642,-4.94912 0.766233,-1.84985 2.144215,-2.76192 4.172783,-2.76192 2.02858,0 3.40654,0.91207 4.17278,2.76192 1.22275,2.95196 -0.92118,6.07136 -4.17278,6.07136 -1.390727,0 -2.20353,-0.30163 -3.024141,-1.12224 z M 111.11995,175.452 c -1.63936,-1.37944 -2.08965,-3.20957 -1.25947,-5.119 0.33353,-0.76715 14.07699,-14.83655 30.54099,-31.26528 28.62533,-28.56401 30.00858,-29.87045 31.62684,-29.87045 3.35257,0 5.62356,3.29399 4.32698,6.27616 -0.33355,0.76716 -14.07699,14.83656 -30.54101,31.26529 -28.62531,28.56401 -30.00856,29.87045 -31.62682,29.87045 -1.12483,0 -2.15341,-0.38803 -3.06751,-1.15717 z m 71.27057,-71.56115 c -1.46587,-1.46587 -1.87007,-3.20745 -1.14865,-4.94914 0.76624,-1.849855 2.14422,-2.761909 4.17279,-2.761909 2.02857,0 3.40654,0.912054 4.17277,2.761909 1.22276,2.95196 -0.92118,6.07137 -4.17277,6.07137 -1.39073,0 -2.20353,-0.30162 -3.02414,-1.12223 z m 56.50731,148.30056 c 5.38141,-1.40543 10.07347,-5.32236 12.45031,-10.39351 1.10346,-2.35433 1.24599,-3.2167 1.24599,-7.53992 0,-4.33932 -0.14035,-5.18096 -1.26294,-7.57697 -0.69462,-1.48247 -1.84526,-3.39232 -2.55701,-4.24412 -1.53165,-1.833 -65.14103,-60.23992 -65.60569,-60.23992 -0.17522,0 -5.01878,4.70368 -10.76346,10.45261 l -10.44486,10.45263 1.89967,1.98371 c 1.04483,1.09105 14.18952,15.37312 29.21043,31.73793 26.17269,28.51433 30.04954,32.52046 32.89477,33.9918 3.7073,1.91711 8.78972,2.45778 12.93279,1.37576 z m -9.31675,-17.05161 c -0.63926,-0.24968 -10.94302,-10.22556 -22.89727,-22.16859 -22.86558,-22.84413 -23.07748,-23.0952 -21.72221,-25.7364 0.91143,-1.77618 2.40811,-2.70072 4.39007,-2.71184 1.8178,-0.01 2.17138,0.31594 24.05909,22.19004 22.01489,22.00122 22.21416,22.2173 22.21416,24.08764 0,2.06881 -1.11836,3.66341 -3.09684,4.41562 -1.35403,0.51481 -1.43878,0.51262 -2.947,-0.0764 z m -63.45621,-69.24386 10.22406,-10.24835 -3.25438,-2.98327 c -1.78989,-1.64081 -3.36079,-2.99153 -3.49088,-3.0016 -0.13014,-0.01 -4.70917,4.45798 -10.17574,9.929 l -9.93924,9.94731 2.96965,3.25634 c 1.6333,1.79099 3.07604,3.27717 3.20606,3.30262 0.12997,0.0254 4.83725,-4.56547 10.46047,-10.20205 z m -39.51922,-39.49909 3.23147,-3.25644 L 99.9771,93.256569 70.117066,63.37273 v -6.311387 -6.31138 L 56.439918,42.548388 C 48.917488,38.037521 42.588904,34.340077 42.3764,34.331845 c -0.212504,-0.0082 -2.080371,1.807248 -4.150817,4.0344 l -3.764447,4.049366 8.154368,13.588713 8.154366,13.588711 6.107553,0.159625 c 5.777891,0.151059 6.193386,0.22621 7.697731,1.392264 0.874599,0.67792 14.351942,14.0913 29.94967,29.807486 15.597706,15.7162 28.469706,28.60325 28.604406,28.63786 0.13475,0.0346 1.69909,-1.40244 3.47642,-3.19349 z"
         id="path1" /></g></g></svg>
